<svg id="svg" version="1.1" xmlns="http://www.w3.org/2000/svg" xmlns:xlink="http://www.w3.org/1999/xlink" width="400" height="400" viewBox="0, 0, 400,400"><g id="svgg"><path id="path0" d="M85.773 75.727 C 85.661 76.017,85.622 78.132,85.685 80.427 L 85.800 84.600 96.101 84.707 L 106.401 84.814 106.301 200.307 L 106.200 315.800 96.000 316.000 L 85.800 316.200 85.800 320.400 L 85.800 324.600 113.714 324.703 L 141.627 324.805 141.514 320.503 L 141.400 316.200 131.200 316.000 L 121.000 315.800 120.899 208.266 C 120.819 122.348,120.899 100.766,121.299 100.900 C 121.753 101.051,123.316 103.590,133.181 120.200 C 134.880 123.060,139.378 130.620,143.179 137.000 C 146.979 143.380,151.479 150.940,153.179 153.800 C 154.878 156.660,159.379 164.220,163.179 170.600 C 166.980 176.980,170.941 183.640,171.981 185.400 C 173.022 187.160,176.932 193.730,180.671 200.000 C 184.410 206.270,188.963 213.920,190.789 217.000 C 192.615 220.080,197.166 227.730,200.902 234.000 C 204.638 240.270,209.084 247.740,210.782 250.600 C 212.480 253.460,216.978 261.020,220.779 267.400 C 224.579 273.780,229.079 281.340,230.779 284.200 C 232.478 287.060,236.928 294.530,240.667 300.800 C 244.405 307.070,249.135 315.035,251.178 318.500 L 254.893 324.800 284.246 324.800 L 313.600 324.800 313.600 320.407 L 313.600 316.014 303.900 315.907 L 294.200 315.800 294.099 200.307 L 293.999 84.814 303.699 84.707 L 313.400 84.600 313.400 80.000 L 313.400 75.400 274.400 75.400 L 235.400 75.400 235.400 80.000 L 235.400 84.600 245.300 84.707 L 255.200 84.814 255.200 167.040 C 255.200 232.075,255.097 249.232,254.706 249.102 C 254.435 249.012,251.230 244.182,247.584 238.369 C 240.288 226.737,228.581 208.111,215.799 187.800 C 211.231 180.540,204.212 169.380,200.202 163.000 C 184.662 138.274,174.953 122.832,166.000 108.600 C 160.880 100.460,154.157 89.750,151.061 84.800 C 147.964 79.850,145.244 75.668,145.015 75.506 C 144.196 74.926,85.997 75.143,85.773 75.727 " stroke="none" fill="#1c74e4" fill-rule="evenodd"></path><path id="path1" d="M0.000 200.000 L 0.000 400.000 200.000 400.000 L 400.000 400.000 400.000 200.000 L 400.000 0.000 200.000 0.000 L 0.000 0.000 0.000 200.000 M147.801 78.300 C 149.914 81.608,152.195 85.221,157.713 94.000 C 159.026 96.090,160.978 99.195,162.050 100.900 C 163.123 102.605,164.877 105.395,165.950 107.100 C 167.022 108.805,169.029 112.000,170.410 114.200 C 171.791 116.400,173.771 119.550,174.810 121.200 C 175.849 122.850,177.829 126.000,179.210 128.200 C 180.591 130.400,182.571 133.550,183.610 135.200 C 184.649 136.850,186.629 140.000,188.009 142.200 C 189.390 144.400,191.544 147.820,192.795 149.800 C 194.047 151.780,196.029 154.930,197.201 156.800 C 198.373 158.670,200.179 161.550,201.215 163.200 C 202.251 164.850,204.229 168.000,205.609 170.200 C 206.990 172.400,209.144 175.820,210.395 177.800 C 213.068 182.028,215.735 186.265,219.210 191.800 C 220.591 194.000,222.571 197.150,223.610 198.800 C 224.649 200.450,226.629 203.600,228.010 205.800 C 229.391 208.000,231.371 211.150,232.410 212.800 C 233.449 214.450,235.429 217.600,236.810 219.800 C 238.191 222.000,240.171 225.150,241.210 226.800 C 244.011 231.247,247.540 236.865,250.509 241.600 C 251.958 243.910,253.418 246.160,253.754 246.600 C 254.302 247.318,254.366 239.103,254.382 166.307 L 254.400 85.214 244.700 85.107 L 235.000 85.000 235.000 80.000 L 235.000 75.000 274.357 74.898 C 303.105 74.824,313.860 74.918,314.257 75.247 C 314.976 75.844,315.031 84.009,314.320 84.720 C 313.974 85.066,311.191 85.200,304.320 85.200 L 294.800 85.200 294.800 199.980 L 294.800 314.760 304.367 314.880 C 309.630 314.946,314.085 315.150,314.267 315.333 C 314.702 315.769,314.701 325.032,314.267 325.467 C 313.901 325.833,257.743 326.167,255.786 325.815 C 254.728 325.624,248.738 316.820,246.800 312.606 C 246.616 312.206,242.566 305.407,231.666 287.200 C 229.361 283.350,227.171 279.660,226.800 279.000 C 226.429 278.340,224.240 274.650,221.935 270.800 C 214.147 257.788,207.485 246.606,206.803 245.400 C 206.430 244.740,204.239 241.050,201.934 237.200 C 195.766 226.898,189.978 217.168,189.204 215.800 C 188.831 215.140,186.639 211.450,184.334 207.600 C 173.562 189.606,169.384 182.595,169.200 182.200 C 169.016 181.805,164.838 174.794,154.066 156.800 C 151.761 152.950,149.571 149.260,149.200 148.600 C 148.829 147.940,146.639 144.250,144.334 140.400 C 133.529 122.351,129.384 115.395,129.200 114.998 C 128.731 113.990,121.907 102.800,121.761 102.800 C 121.672 102.800,121.600 150.500,121.600 208.800 L 121.600 314.800 131.226 314.800 C 137.097 314.800,141.154 314.962,141.626 315.214 C 142.805 315.845,142.805 324.955,141.626 325.586 C 140.445 326.218,86.314 326.154,85.680 325.520 C 85.018 324.858,85.018 315.942,85.680 315.280 C 86.028 314.932,88.898 314.800,96.080 314.800 L 106.000 314.800 106.000 200.007 L 106.000 85.214 95.700 85.107 L 85.400 85.000 85.286 80.424 C 85.224 77.908,85.263 75.613,85.374 75.324 C 85.537 74.898,91.197 74.800,115.570 74.800 L 145.565 74.800 147.801 78.300 " stroke="none" fill="#fbfbfc" fill-rule="evenodd"></path><path id="path2" d="M313.400 80.000 C 313.400 82.640,313.535 84.800,313.700 84.800 C 313.865 84.800,314.000 82.640,314.000 80.000 C 314.000 77.360,313.865 75.200,313.700 75.200 C 313.535 75.200,313.400 77.360,313.400 80.000 M145.848 76.500 C 148.113 80.341,150.561 83.752,149.149 81.100 C 148.425 79.741,145.910 76.000,145.720 76.000 C 145.628 76.000,145.685 76.225,145.848 76.500 M149.848 82.900 C 152.113 86.741,154.561 90.152,153.149 87.500 C 152.425 86.141,149.910 82.400,149.720 82.400 C 149.628 82.400,149.685 82.625,149.848 82.900 M254.800 166.600 L 254.600 248.600 253.043 246.300 C 251.236 243.630,250.776 243.295,252.088 245.605 C 253.319 247.772,254.676 249.452,254.965 249.166 C 255.095 249.037,255.156 211.957,255.100 166.766 L 254.999 84.600 254.800 166.600 M294.199 200.200 L 294.200 315.800 303.900 315.907 L 313.600 316.014 313.600 320.412 L 313.600 324.810 284.020 324.705 C 267.751 324.647,254.576 324.736,254.743 324.903 C 254.909 325.069,268.265 325.159,284.423 325.103 L 313.800 325.000 313.800 320.400 L 313.800 315.800 304.200 315.600 L 294.600 315.400 294.399 200.000 L 294.197 84.600 294.199 200.200 M153.848 89.300 C 156.113 93.141,158.561 96.552,157.149 93.900 C 156.425 92.541,153.910 88.800,153.720 88.800 C 153.628 88.800,153.685 89.025,153.848 89.300 M159.678 98.500 C 159.992 98.995,160.663 100.084,161.170 100.921 C 161.677 101.758,162.174 102.360,162.275 102.259 C 162.470 102.063,159.618 97.600,159.297 97.600 C 159.193 97.600,159.365 98.005,159.678 98.500 M120.899 208.300 L 121.000 315.800 131.200 316.000 L 141.400 316.200 141.514 320.505 L 141.627 324.811 113.614 324.705 C 98.206 324.647,85.600 324.736,85.600 324.903 C 85.600 325.069,98.245 325.159,113.700 325.103 L 141.800 325.000 141.800 320.400 L 141.800 315.800 131.600 315.583 C 125.990 315.463,121.355 315.328,121.300 315.283 C 121.245 315.237,121.206 267.095,121.213 208.300 C 121.228 90.917,121.026 100.901,123.319 104.022 C 124.196 105.216,123.788 104.333,122.523 102.300 C 122.010 101.475,121.412 100.800,121.194 100.800 C 120.934 100.800,120.833 137.608,120.899 208.300 M163.448 104.500 C 165.713 108.341,168.161 111.752,166.749 109.100 C 166.025 107.741,163.510 104.000,163.320 104.000 C 163.228 104.000,163.285 104.225,163.448 104.500 M124.000 105.349 C 124.000 105.648,127.673 111.600,127.857 111.600 C 128.080 111.600,128.180 111.790,126.012 108.100 C 124.503 105.531,124.000 104.843,124.000 105.349 M167.448 110.900 C 169.713 114.741,172.161 118.152,170.749 115.500 C 170.025 114.141,167.510 110.400,167.320 110.400 C 167.228 110.400,167.285 110.625,167.448 110.900 M128.013 112.109 C 127.998 112.459,130.023 115.600,130.263 115.600 C 130.485 115.600,129.382 113.556,128.643 112.600 C 128.303 112.160,128.020 111.939,128.013 112.109 M130.409 116.300 C 130.414 116.465,130.785 117.050,131.233 117.600 L 132.048 118.600 131.414 117.300 C 130.811 116.065,130.389 115.645,130.409 116.300 M171.664 117.600 C 174.114 121.614,175.720 124.013,175.863 123.871 C 176.038 123.695,172.203 117.688,171.476 117.000 C 171.244 116.780,171.328 117.050,171.664 117.600 M132.550 119.800 C 132.874 120.460,133.431 121.360,133.789 121.800 C 134.397 122.548,134.401 122.522,133.850 121.400 C 133.526 120.740,132.969 119.840,132.611 119.400 C 132.003 118.652,131.999 118.678,132.550 119.800 M134.950 123.800 C 135.274 124.460,135.831 125.360,136.189 125.800 C 136.797 126.548,136.801 126.522,136.250 125.400 C 135.926 124.740,135.369 123.840,135.011 123.400 C 134.403 122.652,134.399 122.678,134.950 123.800 M177.278 126.500 C 177.592 126.995,178.263 128.084,178.770 128.921 C 179.277 129.758,179.774 130.360,179.875 130.259 C 180.070 130.063,177.218 125.600,176.897 125.600 C 176.793 125.600,176.965 126.005,177.278 126.500 M137.324 127.800 C 137.662 128.460,138.238 129.360,138.604 129.800 C 138.970 130.240,138.865 129.880,138.370 129.000 C 137.280 127.058,136.464 126.122,137.324 127.800 M139.724 131.800 C 140.062 132.460,140.638 133.360,141.004 133.800 C 141.370 134.240,141.265 133.880,140.770 133.000 C 139.680 131.058,138.864 130.122,139.724 131.800 M181.048 132.500 C 183.313 136.341,185.761 139.752,184.349 137.100 C 183.625 135.741,181.110 132.000,180.920 132.000 C 180.828 132.000,180.885 132.225,181.048 132.500 M141.600 134.949 C 141.600 135.248,145.273 141.200,145.457 141.200 C 145.680 141.200,145.780 141.390,143.612 137.700 C 142.103 135.131,141.600 134.443,141.600 134.949 M185.048 138.900 C 187.313 142.741,189.761 146.152,188.349 143.500 C 187.625 142.141,185.110 138.400,184.920 138.400 C 184.828 138.400,184.885 138.625,185.048 138.900 M146.150 142.600 C 146.474 143.260,147.031 144.160,147.389 144.600 C 147.997 145.348,148.001 145.322,147.450 144.200 C 147.126 143.540,146.569 142.640,146.211 142.200 C 145.603 141.452,145.599 141.478,146.150 142.600 M189.264 145.600 C 191.785 149.731,193.323 152.010,193.482 151.851 C 193.584 151.749,192.728 150.255,191.580 148.533 C 189.571 145.520,188.002 143.534,189.264 145.600 M148.013 145.709 C 147.998 146.059,150.023 149.200,150.263 149.200 C 150.485 149.200,149.382 147.156,148.643 146.200 C 148.303 145.760,148.020 145.539,148.013 145.709 M150.409 149.900 C 150.414 150.065,150.785 150.650,151.233 151.200 L 152.048 152.200 151.414 150.900 C 150.811 149.665,150.389 149.245,150.409 149.900 M152.550 153.400 C 152.874 154.060,153.431 154.960,153.789 155.400 C 154.397 156.148,154.401 156.122,153.850 155.000 C 153.526 154.340,152.969 153.440,152.611 153.000 C 152.003 152.252,151.999 152.278,152.550 153.400 M194.648 154.100 C 196.913 157.941,199.361 161.352,197.949 158.700 C 197.225 157.341,194.710 153.600,194.520 153.600 C 194.428 153.600,194.485 153.825,194.648 154.100 M154.950 157.400 C 155.274 158.060,155.831 158.960,156.189 159.400 C 156.797 160.148,156.801 160.122,156.250 159.000 C 155.926 158.340,155.369 157.440,155.011 157.000 C 154.403 156.252,154.399 156.278,154.950 157.400 M198.648 160.500 C 200.913 164.341,203.361 167.752,201.949 165.100 C 201.225 163.741,198.710 160.000,198.520 160.000 C 198.428 160.000,198.485 160.225,198.648 160.500 M157.324 161.400 C 157.662 162.060,158.238 162.960,158.604 163.400 C 158.970 163.840,158.865 163.480,158.370 162.600 C 157.280 160.658,156.464 159.722,157.324 161.400 M159.724 165.400 C 160.062 166.060,160.638 166.960,161.004 167.400 C 161.370 167.840,161.265 167.480,160.770 166.600 C 159.680 164.658,158.864 163.722,159.724 165.400 M202.648 166.900 C 204.913 170.741,207.361 174.152,205.949 171.500 C 205.225 170.141,202.710 166.400,202.520 166.400 C 202.428 166.400,202.485 166.625,202.648 166.900 M161.600 168.549 C 161.600 168.848,165.273 174.800,165.457 174.800 C 165.680 174.800,165.780 174.990,163.612 171.300 C 162.103 168.731,161.600 168.043,161.600 168.549 M207.003 173.800 C 210.255 179.009,210.928 180.005,211.087 179.846 C 211.187 179.746,210.328 178.255,209.180 176.533 C 207.119 173.442,205.547 171.469,207.003 173.800 M165.613 175.309 C 165.598 175.659,167.623 178.800,167.863 178.800 C 168.085 178.800,166.982 176.756,166.243 175.800 C 165.903 175.360,165.620 175.139,165.613 175.309 M168.013 179.309 C 167.998 179.659,170.023 182.800,170.263 182.800 C 170.485 182.800,169.382 180.756,168.643 179.800 C 168.303 179.360,168.020 179.139,168.013 179.309 M212.248 182.100 C 214.513 185.941,216.961 189.352,215.549 186.700 C 214.825 185.341,212.310 181.600,212.120 181.600 C 212.028 181.600,212.085 181.825,212.248 182.100 M170.409 183.500 C 170.414 183.665,170.785 184.250,171.233 184.800 L 172.048 185.800 171.414 184.500 C 170.811 183.265,170.389 182.845,170.409 183.500 M172.550 187.000 C 172.874 187.660,173.431 188.560,173.789 189.000 C 174.397 189.748,174.401 189.722,173.850 188.600 C 173.526 187.940,172.969 187.040,172.611 186.600 C 172.003 185.852,171.999 185.878,172.550 187.000 M216.248 188.500 C 218.513 192.341,220.961 195.752,219.549 193.100 C 218.825 191.741,216.310 188.000,216.120 188.000 C 216.028 188.000,216.085 188.225,216.248 188.500 M174.924 191.000 C 175.262 191.660,175.838 192.560,176.204 193.000 C 176.570 193.440,176.465 193.080,175.970 192.200 C 174.880 190.258,174.064 189.322,174.924 191.000 M177.324 195.000 C 177.662 195.660,178.238 196.560,178.604 197.000 C 178.970 197.440,178.865 197.080,178.370 196.200 C 177.280 194.258,176.464 193.322,177.324 195.000 M220.248 194.900 C 222.513 198.741,224.961 202.152,223.549 199.500 C 222.825 198.141,220.310 194.400,220.120 194.400 C 220.028 194.400,220.085 194.625,220.248 194.900 M179.200 198.129 C 179.200 198.494,181.245 201.600,181.486 201.600 C 181.679 201.600,180.092 198.848,179.536 198.220 C 179.351 198.011,179.200 197.970,179.200 198.129 M181.600 202.149 C 181.600 202.448,185.273 208.400,185.457 208.400 C 185.680 208.400,185.780 208.590,183.612 204.900 C 182.103 202.331,181.600 201.643,181.600 202.149 M226.078 204.100 C 226.392 204.595,227.063 205.684,227.570 206.521 C 228.077 207.358,228.574 207.960,228.675 207.859 C 228.870 207.663,226.018 203.200,225.697 203.200 C 225.593 203.200,225.765 203.605,226.078 204.100 M185.613 208.909 C 185.598 209.259,187.623 212.400,187.863 212.400 C 188.085 212.400,186.982 210.356,186.243 209.400 C 185.903 208.960,185.620 208.739,185.613 208.909 M229.848 210.100 C 232.113 213.941,234.561 217.352,233.149 214.700 C 232.425 213.341,229.910 209.600,229.720 209.600 C 229.628 209.600,229.685 209.825,229.848 210.100 M188.000 212.949 C 188.000 213.248,191.673 219.200,191.857 219.200 C 192.080 219.200,192.180 219.390,190.012 215.700 C 188.503 213.131,188.000 212.443,188.000 212.949 M233.848 216.500 C 236.113 220.341,238.561 223.752,237.149 221.100 C 236.425 219.741,233.910 216.000,233.720 216.000 C 233.628 216.000,233.685 216.225,233.848 216.500 M192.550 220.600 C 192.874 221.260,193.431 222.160,193.789 222.600 C 194.397 223.348,194.401 223.322,193.850 222.200 C 193.526 221.540,192.969 220.640,192.611 220.200 C 192.003 219.452,191.999 219.478,192.550 220.600 M238.064 223.200 C 240.514 227.214,242.120 229.613,242.263 229.471 C 242.438 229.295,238.603 223.288,237.876 222.600 C 237.644 222.380,237.728 222.650,238.064 223.200 M194.924 224.600 C 195.262 225.260,195.838 226.160,196.204 226.600 C 196.570 227.040,196.465 226.680,195.970 225.800 C 194.880 223.858,194.064 222.922,194.924 224.600 M197.324 228.600 C 197.662 229.260,198.238 230.160,198.604 230.600 C 198.970 231.040,198.865 230.680,198.370 229.800 C 197.280 227.858,196.464 226.922,197.324 228.600 M243.678 232.100 C 243.992 232.595,244.663 233.684,245.170 234.521 C 245.677 235.358,246.174 235.960,246.275 235.859 C 246.470 235.663,243.618 231.200,243.297 231.200 C 243.193 231.200,243.365 231.605,243.678 232.100 M199.200 231.729 C 199.200 232.094,201.245 235.200,201.486 235.200 C 201.679 235.200,200.092 232.448,199.536 231.820 C 199.351 231.611,199.200 231.570,199.200 231.729 M201.600 235.749 C 201.600 236.048,205.273 242.000,205.457 242.000 C 205.680 242.000,205.780 242.190,203.612 238.500 C 202.103 235.931,201.600 235.243,201.600 235.749 M247.448 238.100 C 249.713 241.941,252.161 245.352,250.749 242.700 C 250.025 241.341,247.510 237.600,247.320 237.600 C 247.228 237.600,247.285 237.825,247.448 238.100 M205.613 242.509 C 205.598 242.859,207.623 246.000,207.863 246.000 C 208.085 246.000,206.982 243.956,206.243 243.000 C 205.903 242.560,205.620 242.339,205.613 242.509 M208.009 246.700 C 208.014 246.865,208.385 247.450,208.833 248.000 L 209.648 249.000 209.014 247.700 C 208.411 246.465,207.989 246.045,208.009 246.700 M210.150 250.200 C 210.474 250.860,211.031 251.760,211.389 252.200 C 211.997 252.948,212.001 252.922,211.450 251.800 C 211.126 251.140,210.569 250.240,210.211 249.800 C 209.603 249.052,209.599 249.078,210.150 250.200 M212.550 254.200 C 212.874 254.860,213.431 255.760,213.789 256.200 C 214.397 256.948,214.401 256.922,213.850 255.800 C 213.526 255.140,212.969 254.240,212.611 253.800 C 212.003 253.052,211.999 253.078,212.550 254.200 M214.924 258.200 C 215.262 258.860,215.838 259.760,216.204 260.200 C 216.570 260.640,216.465 260.280,215.970 259.400 C 214.880 257.458,214.064 256.522,214.924 258.200 M217.324 262.200 C 217.662 262.860,218.238 263.760,218.604 264.200 C 218.970 264.640,218.865 264.280,218.370 263.400 C 217.280 261.458,216.464 260.522,217.324 262.200 M219.200 265.329 C 219.200 265.694,221.245 268.800,221.486 268.800 C 221.679 268.800,220.092 266.048,219.536 265.420 C 219.351 265.211,219.200 265.170,219.200 265.329 M221.609 269.500 C 221.614 269.665,221.985 270.250,222.433 270.800 L 223.248 271.800 222.614 270.500 C 222.011 269.265,221.589 268.845,221.609 269.500 M223.750 273.000 C 224.074 273.660,224.631 274.560,224.989 275.000 C 225.597 275.748,225.601 275.722,225.050 274.600 C 224.726 273.940,224.169 273.040,223.811 272.600 C 223.203 271.852,223.199 271.878,223.750 273.000 M225.613 276.109 C 225.598 276.459,227.623 279.600,227.863 279.600 C 228.085 279.600,226.982 277.556,226.243 276.600 C 225.903 276.160,225.620 275.939,225.613 276.109 M228.009 280.300 C 228.014 280.465,228.385 281.050,228.833 281.600 L 229.648 282.600 229.014 281.300 C 228.411 280.065,227.989 279.645,228.009 280.300 M230.150 283.800 C 230.474 284.460,231.031 285.360,231.389 285.800 C 231.997 286.548,232.001 286.522,231.450 285.400 C 231.126 284.740,230.569 283.840,230.211 283.400 C 229.603 282.652,229.599 282.678,230.150 283.800 M232.550 287.800 C 232.874 288.460,233.431 289.360,233.789 289.800 C 234.397 290.548,234.401 290.522,233.850 289.400 C 233.526 288.740,232.969 287.840,232.611 287.400 C 232.003 286.652,231.999 286.678,232.550 287.800 M234.924 291.800 C 235.262 292.460,235.838 293.360,236.204 293.800 C 236.570 294.240,236.465 293.880,235.970 293.000 C 234.880 291.058,234.064 290.122,234.924 291.800 M237.324 295.800 C 237.662 296.460,238.238 297.360,238.604 297.800 C 238.970 298.240,238.865 297.880,238.370 297.000 C 237.280 295.058,236.464 294.122,237.324 295.800 M239.200 298.949 C 239.200 299.248,242.873 305.200,243.057 305.200 C 243.280 305.200,243.380 305.390,241.212 301.700 C 239.703 299.131,239.200 298.443,239.200 298.949 M243.750 306.600 C 244.074 307.260,244.631 308.160,244.989 308.600 C 245.597 309.348,245.601 309.322,245.050 308.200 C 244.726 307.540,244.169 306.640,243.811 306.200 C 243.203 305.452,243.199 305.478,243.750 306.600 M245.613 309.709 C 245.598 310.059,247.623 313.200,247.863 313.200 C 248.085 313.200,246.982 311.156,246.243 310.200 C 245.903 309.760,245.620 309.539,245.613 309.709 M248.009 313.900 C 248.014 314.065,248.385 314.650,248.833 315.200 L 249.648 316.200 249.014 314.900 C 248.411 313.665,247.989 313.245,248.009 313.900 M95.900 315.500 C 90.235 315.562,85.600 315.745,85.600 315.907 C 85.599 316.350,105.723 316.037,106.174 315.586 C 106.386 315.374,106.479 315.242,106.380 315.293 C 106.281 315.344,101.565 315.437,95.900 315.500 M250.150 317.400 C 250.474 318.060,251.031 318.960,251.389 319.400 C 251.997 320.148,252.001 320.122,251.450 319.000 C 251.126 318.340,250.569 317.440,250.211 317.000 C 249.603 316.252,249.599 316.278,250.150 317.400 M252.524 321.400 C 252.862 322.060,253.438 322.960,253.804 323.400 C 254.170 323.840,254.065 323.480,253.570 322.600 C 252.480 320.658,251.664 319.722,252.524 321.400 " stroke="none" fill="#8dbcf4" fill-rule="evenodd"></path><path id="path3" d="M234.951 80.000 C 234.951 82.530,235.016 83.565,235.096 82.300 C 235.175 81.035,235.175 78.965,235.096 77.700 C 235.016 76.435,234.951 77.470,234.951 80.000 M314.151 80.000 C 314.151 82.530,314.216 83.565,314.296 82.300 C 314.375 81.035,314.375 78.965,314.296 77.700 C 314.216 76.435,314.151 77.470,314.151 80.000 M106.099 200.093 L 106.000 315.186 95.900 315.300 L 85.800 315.414 95.913 315.507 C 103.704 315.579,106.069 315.485,106.215 315.100 C 106.319 314.825,106.358 262.940,106.302 199.800 L 106.199 85.000 106.099 200.093 M125.200 315.480 C 133.604 315.764,141.909 315.774,141.739 315.500 C 141.637 315.335,137.108 315.237,131.676 315.282 C 126.244 315.327,123.330 315.416,125.200 315.480 M304.200 315.589 L 313.800 315.800 313.800 320.400 L 313.800 325.000 284.400 325.204 L 255.000 325.408 284.220 325.504 C 306.522 325.577,313.554 325.486,313.920 325.120 C 314.233 324.807,314.400 323.164,314.400 320.400 C 314.400 314.775,315.228 315.183,304.020 315.289 L 294.600 315.378 304.200 315.589 M113.600 325.200 L 85.400 325.408 113.476 325.504 C 131.867 325.567,141.638 325.462,141.800 325.200 C 141.936 324.980,141.992 324.843,141.924 324.896 C 141.856 324.949,129.110 325.086,113.600 325.200 " stroke="none" fill="#acccf4" fill-rule="evenodd"></path><path id="path4" d="M85.374 75.324 C 85.263 75.613,85.224 77.908,85.286 80.424 L 85.400 85.000 95.800 85.011 L 106.200 85.021 95.900 84.904 L 85.600 84.786 85.600 79.993 L 85.600 75.200 115.520 75.200 C 138.890 75.200,145.563 75.309,146.001 75.700 C 146.478 76.125,146.482 76.096,146.032 75.500 C 145.327 74.568,85.730 74.396,85.374 75.324 M235.062 75.100 C 234.960 75.265,252.724 75.400,274.538 75.400 L 314.200 75.400 314.200 80.000 L 314.200 84.600 304.400 84.800 L 294.600 85.000 294.499 200.100 L 294.399 315.200 303.899 315.108 L 313.400 315.015 304.100 314.900 L 294.800 314.785 294.800 199.993 L 294.800 85.200 304.320 85.200 C 315.634 85.200,314.800 85.614,314.800 80.000 C 314.800 77.236,314.633 75.593,314.320 75.280 C 313.775 74.735,235.398 74.557,235.062 75.100 M148.209 79.426 C 148.581 80.101,149.241 81.091,149.676 81.626 L 150.467 82.600 149.791 81.374 C 149.419 80.699,148.759 79.709,148.324 79.174 L 147.533 78.200 148.209 79.426 M235.147 84.908 C 235.316 85.077,239.673 85.166,244.828 85.107 L 254.200 84.999 244.519 84.799 C 239.195 84.690,234.977 84.738,235.147 84.908 M254.400 166.249 C 254.400 241.731,254.354 247.260,253.736 246.749 C 253.128 246.246,253.119 246.276,253.632 247.100 C 253.940 247.595,254.329 248.000,254.496 248.000 C 254.663 248.000,254.800 211.370,254.800 166.600 C 254.800 121.830,254.710 85.200,254.600 85.200 C 254.490 85.200,254.400 121.672,254.400 166.249 M153.009 87.026 C 153.381 87.701,154.041 88.691,154.476 89.226 L 155.267 90.200 154.591 88.974 C 154.219 88.299,153.559 87.309,153.124 86.774 L 152.333 85.800 153.009 87.026 M157.009 93.426 C 157.381 94.101,158.041 95.091,158.476 95.626 L 159.267 96.600 158.591 95.374 C 158.219 94.699,157.559 93.709,157.124 93.174 L 156.333 92.200 157.009 93.426 M161.809 101.026 C 162.181 101.701,162.841 102.691,163.276 103.226 L 164.067 104.200 163.391 102.974 C 163.019 102.299,162.359 101.309,161.924 100.774 L 161.133 99.800 161.809 101.026 M121.299 208.700 L 121.400 315.000 131.200 315.010 L 141.000 315.021 131.300 314.903 L 121.600 314.786 121.600 208.793 C 121.600 150.497,121.673 102.800,121.762 102.800 C 121.851 102.800,122.399 103.610,122.979 104.600 C 123.559 105.590,124.127 106.400,124.240 106.400 C 124.354 106.400,124.314 106.175,124.152 105.900 C 122.736 103.504,121.929 102.400,121.594 102.400 C 121.334 102.400,121.233 138.798,121.299 208.700 M165.809 107.426 C 166.181 108.101,166.841 109.091,167.276 109.626 L 168.067 110.600 167.391 109.374 C 167.019 108.699,166.359 107.709,165.924 107.174 L 165.133 106.200 165.809 107.426 M125.149 108.200 C 125.365 108.640,125.834 109.360,126.193 109.800 L 126.844 110.600 126.451 109.800 C 126.235 109.360,125.766 108.640,125.407 108.200 L 124.756 107.400 125.149 108.200 M127.560 112.200 C 128.234 113.505,128.788 114.228,128.785 113.800 C 128.783 113.580,128.414 112.950,127.964 112.400 C 127.421 111.736,127.285 111.669,127.560 112.200 M170.609 115.026 C 170.981 115.701,171.641 116.691,172.076 117.226 L 172.867 118.200 172.191 116.974 C 171.819 116.299,171.159 115.309,170.724 114.774 L 169.933 113.800 170.609 115.026 M129.215 115.000 C 129.217 115.220,129.586 115.850,130.036 116.400 C 130.579 117.064,130.715 117.131,130.440 116.600 C 129.766 115.295,129.212 114.572,129.215 115.000 M131.549 119.000 C 131.765 119.440,132.234 120.160,132.593 120.600 L 133.244 121.400 132.851 120.600 C 132.635 120.160,132.166 119.440,131.807 119.000 L 131.156 118.200 131.549 119.000 M174.609 121.426 C 174.981 122.101,175.641 123.091,176.076 123.626 L 176.867 124.600 176.191 123.374 C 175.819 122.699,175.159 121.709,174.724 121.174 L 173.933 120.200 174.609 121.426 M133.949 123.000 C 134.165 123.440,134.634 124.160,134.993 124.600 L 135.644 125.400 135.251 124.600 C 135.035 124.160,134.566 123.440,134.207 123.000 L 133.556 122.200 133.949 123.000 M136.349 127.000 C 136.565 127.440,137.034 128.160,137.393 128.600 L 138.044 129.400 137.651 128.600 C 137.435 128.160,136.966 127.440,136.607 127.000 L 135.956 126.200 136.349 127.000 M179.409 129.026 C 179.781 129.701,180.441 130.691,180.876 131.226 L 181.667 132.200 180.991 130.974 C 180.619 130.299,179.959 129.309,179.524 128.774 L 178.733 127.800 179.409 129.026 M140.124 133.400 C 140.462 134.060,141.038 134.960,141.404 135.400 C 141.770 135.840,141.665 135.480,141.170 134.600 C 140.080 132.658,139.264 131.722,140.124 133.400 M183.409 135.426 C 183.781 136.101,184.441 137.091,184.876 137.626 L 185.667 138.600 184.991 137.374 C 184.619 136.699,183.959 135.709,183.524 135.174 L 182.733 134.200 183.409 135.426 M142.749 137.800 C 142.965 138.240,143.434 138.960,143.793 139.400 L 144.444 140.200 144.051 139.400 C 143.835 138.960,143.366 138.240,143.007 137.800 L 142.356 137.000 142.749 137.800 M145.149 141.800 C 145.365 142.240,145.834 142.960,146.193 143.400 L 146.844 144.200 146.451 143.400 C 146.235 142.960,145.766 142.240,145.407 141.800 L 144.756 141.000 145.149 141.800 M188.209 143.026 C 188.581 143.701,189.241 144.691,189.676 145.226 L 190.467 146.200 189.791 144.974 C 189.419 144.299,188.759 143.309,188.324 142.774 L 187.533 141.800 188.209 143.026 M147.560 145.800 C 148.234 147.105,148.788 147.828,148.785 147.400 C 148.783 147.180,148.414 146.550,147.964 146.000 C 147.421 145.336,147.285 145.269,147.560 145.800 M149.215 148.600 C 149.217 148.820,149.586 149.450,150.036 150.000 C 150.579 150.664,150.715 150.731,150.440 150.200 C 149.766 148.895,149.212 148.172,149.215 148.600 M192.222 149.500 C 194.359 152.795,194.924 153.600,195.099 153.600 C 195.205 153.600,194.971 153.105,194.578 152.500 C 192.441 149.205,191.876 148.400,191.701 148.400 C 191.595 148.400,191.829 148.895,192.222 149.500 M151.549 152.600 C 151.765 153.040,152.234 153.760,152.593 154.200 L 153.244 155.000 152.851 154.200 C 152.635 153.760,152.166 153.040,151.807 152.600 L 151.156 151.800 151.549 152.600 M153.949 156.600 C 154.165 157.040,154.634 157.760,154.993 158.200 L 155.644 159.000 155.251 158.200 C 155.035 157.760,154.566 157.040,154.207 156.600 L 153.556 155.800 153.949 156.600 M197.009 157.026 C 197.381 157.701,198.041 158.691,198.476 159.226 L 199.267 160.200 198.591 158.974 C 198.219 158.299,197.559 157.309,197.124 156.774 L 196.333 155.800 197.009 157.026 M156.349 160.600 C 156.565 161.040,157.034 161.760,157.393 162.200 L 158.044 163.000 157.651 162.200 C 157.435 161.760,156.966 161.040,156.607 160.600 L 155.956 159.800 156.349 160.600 M201.549 164.200 C 201.765 164.640,202.234 165.360,202.593 165.800 L 203.244 166.600 202.851 165.800 C 202.635 165.360,202.166 164.640,201.807 164.200 L 201.156 163.400 201.549 164.200 M160.124 167.000 C 160.462 167.660,161.038 168.560,161.404 169.000 C 161.770 169.440,161.665 169.080,161.170 168.200 C 160.080 166.258,159.264 165.322,160.124 167.000 M205.809 171.026 C 206.181 171.701,206.841 172.691,207.276 173.226 L 208.067 174.200 207.391 172.974 C 207.019 172.299,206.359 171.309,205.924 170.774 L 205.133 169.800 205.809 171.026 M162.749 171.400 C 162.965 171.840,163.434 172.560,163.793 173.000 L 164.444 173.800 164.051 173.000 C 163.835 172.560,163.366 171.840,163.007 171.400 L 162.356 170.600 162.749 171.400 M165.149 175.400 C 165.365 175.840,165.834 176.560,166.193 177.000 L 166.844 177.800 166.451 177.000 C 166.235 176.560,165.766 175.840,165.407 175.400 L 164.756 174.600 165.149 175.400 M210.609 178.626 C 210.981 179.301,211.641 180.291,212.076 180.826 L 212.867 181.800 212.191 180.574 C 211.819 179.899,211.159 178.909,210.724 178.374 L 209.933 177.400 210.609 178.626 M167.560 179.400 C 168.234 180.705,168.788 181.428,168.785 181.000 C 168.783 180.780,168.414 180.150,167.964 179.600 C 167.421 178.936,167.285 178.869,167.560 179.400 M169.215 182.200 C 169.217 182.420,169.586 183.050,170.036 183.600 C 170.579 184.264,170.715 184.331,170.440 183.800 C 169.766 182.495,169.212 181.772,169.215 182.200 M214.609 185.026 C 214.981 185.701,215.641 186.691,216.076 187.226 L 216.867 188.200 216.191 186.974 C 215.819 186.299,215.159 185.309,214.724 184.774 L 213.933 183.800 214.609 185.026 M171.549 186.200 C 171.765 186.640,172.234 187.360,172.593 187.800 L 173.244 188.600 172.851 187.800 C 172.635 187.360,172.166 186.640,171.807 186.200 L 171.156 185.400 171.549 186.200 M173.949 190.200 C 174.165 190.640,174.634 191.360,174.993 191.800 L 175.644 192.600 175.251 191.800 C 175.035 191.360,174.566 190.640,174.207 190.200 L 173.556 189.400 173.949 190.200 M219.409 192.626 C 219.781 193.301,220.441 194.291,220.876 194.826 L 221.667 195.800 220.991 194.574 C 220.619 193.899,219.959 192.909,219.524 192.374 L 218.733 191.400 219.409 192.626 M176.349 194.200 C 176.565 194.640,177.034 195.360,177.393 195.800 L 178.044 196.600 177.651 195.800 C 177.435 195.360,176.966 194.640,176.607 194.200 L 175.956 193.400 176.349 194.200 M223.409 199.026 C 223.781 199.701,224.441 200.691,224.876 201.226 L 225.667 202.200 224.991 200.974 C 224.619 200.299,223.959 199.309,223.524 198.774 L 222.733 197.800 223.409 199.026 M180.124 200.600 C 180.462 201.260,181.038 202.160,181.404 202.600 C 181.770 203.040,181.665 202.680,181.170 201.800 C 180.080 199.858,179.264 198.922,180.124 200.600 M182.749 205.000 C 182.965 205.440,183.434 206.160,183.793 206.600 L 184.444 207.400 184.051 206.600 C 183.835 206.160,183.366 205.440,183.007 205.000 L 182.356 204.200 182.749 205.000 M228.209 206.626 C 228.581 207.301,229.241 208.291,229.676 208.826 L 230.467 209.800 229.791 208.574 C 229.419 207.899,228.759 206.909,228.324 206.374 L 227.533 205.400 228.209 206.626 M185.160 209.000 C 185.834 210.305,186.388 211.028,186.385 210.600 C 186.383 210.380,186.014 209.750,185.564 209.200 C 185.021 208.536,184.885 208.469,185.160 209.000 M232.209 213.026 C 232.581 213.701,233.241 214.691,233.676 215.226 L 234.467 216.200 233.791 214.974 C 233.419 214.299,232.759 213.309,232.324 212.774 L 231.533 211.800 232.209 213.026 M187.560 213.000 C 188.234 214.305,188.788 215.028,188.785 214.600 C 188.783 214.380,188.414 213.750,187.964 213.200 C 187.421 212.536,187.285 212.469,187.560 213.000 M189.215 215.800 C 189.217 216.020,189.586 216.650,190.036 217.200 C 190.579 217.864,190.715 217.931,190.440 217.400 C 189.766 216.095,189.212 215.372,189.215 215.800 M191.549 219.800 C 191.765 220.240,192.234 220.960,192.593 221.400 L 193.244 222.200 192.851 221.400 C 192.635 220.960,192.166 220.240,191.807 219.800 L 191.156 219.000 191.549 219.800 M237.009 220.626 C 237.381 221.301,238.041 222.291,238.476 222.826 L 239.267 223.800 238.591 222.574 C 238.219 221.899,237.559 220.909,237.124 220.374 L 236.333 219.400 237.009 220.626 M193.949 223.800 C 194.165 224.240,194.634 224.960,194.993 225.400 L 195.644 226.200 195.251 225.400 C 195.035 224.960,194.566 224.240,194.207 223.800 L 193.556 223.000 193.949 223.800 M241.009 227.026 C 241.381 227.701,242.041 228.691,242.476 229.226 L 243.267 230.200 242.591 228.974 C 242.219 228.299,241.559 227.309,241.124 226.774 L 240.333 225.800 241.009 227.026 M197.724 230.200 C 198.062 230.860,198.638 231.760,199.004 232.200 C 199.370 232.640,199.265 232.280,198.770 231.400 C 197.680 229.458,196.864 228.522,197.724 230.200 M200.124 234.200 C 200.462 234.860,201.038 235.760,201.404 236.200 C 201.770 236.640,201.665 236.280,201.170 235.400 C 200.080 233.458,199.264 232.522,200.124 234.200 M245.809 234.626 C 246.181 235.301,246.841 236.291,247.276 236.826 L 248.067 237.800 247.391 236.574 C 247.019 235.899,246.359 234.909,245.924 234.374 L 245.133 233.400 245.809 234.626 M202.749 238.600 C 202.965 239.040,203.434 239.760,203.793 240.200 L 204.444 241.000 204.051 240.200 C 203.835 239.760,203.366 239.040,203.007 238.600 L 202.356 237.800 202.749 238.600 M249.809 241.026 C 250.181 241.701,250.841 242.691,251.276 243.226 L 252.067 244.200 251.391 242.974 C 251.019 242.299,250.359 241.309,249.924 240.774 L 249.133 239.800 249.809 241.026 M205.160 242.600 C 205.834 243.905,206.388 244.628,206.385 244.200 C 206.383 243.980,206.014 243.350,205.564 242.800 C 205.021 242.136,204.885 242.069,205.160 242.600 M206.815 245.400 C 206.817 245.620,207.186 246.250,207.636 246.800 C 208.179 247.464,208.315 247.531,208.040 247.000 C 207.366 245.695,206.812 244.972,206.815 245.400 M209.149 249.400 C 209.365 249.840,209.834 250.560,210.193 251.000 L 210.844 251.800 210.451 251.000 C 210.235 250.560,209.766 249.840,209.407 249.400 L 208.756 248.600 209.149 249.400 M211.549 253.400 C 211.765 253.840,212.234 254.560,212.593 255.000 L 213.244 255.800 212.851 255.000 C 212.635 254.560,212.166 253.840,211.807 253.400 L 211.156 252.600 211.549 253.400 M213.949 257.400 C 214.165 257.840,214.634 258.560,214.993 259.000 L 215.644 259.800 215.251 259.000 C 215.035 258.560,214.566 257.840,214.207 257.400 L 213.556 256.600 213.949 257.400 M217.724 263.800 C 218.062 264.460,218.638 265.360,219.004 265.800 C 219.370 266.240,219.265 265.880,218.770 265.000 C 217.680 263.058,216.864 262.122,217.724 263.800 M220.349 268.200 C 220.565 268.640,221.034 269.360,221.393 269.800 L 222.044 270.600 221.651 269.800 C 221.435 269.360,220.966 268.640,220.607 268.200 L 219.956 267.400 220.349 268.200 M222.749 272.200 C 222.965 272.640,223.434 273.360,223.793 273.800 L 224.444 274.600 224.051 273.800 C 223.835 273.360,223.366 272.640,223.007 272.200 L 222.356 271.400 222.749 272.200 M225.160 276.200 C 225.834 277.505,226.388 278.228,226.385 277.800 C 226.383 277.580,226.014 276.950,225.564 276.400 C 225.021 275.736,224.885 275.669,225.160 276.200 M226.815 279.000 C 226.817 279.220,227.186 279.850,227.636 280.400 C 228.179 281.064,228.315 281.131,228.040 280.600 C 227.366 279.295,226.812 278.572,226.815 279.000 M229.149 283.000 C 229.365 283.440,229.834 284.160,230.193 284.600 L 230.844 285.400 230.451 284.600 C 230.235 284.160,229.766 283.440,229.407 283.000 L 228.756 282.200 229.149 283.000 M231.549 287.000 C 231.765 287.440,232.234 288.160,232.593 288.600 L 233.244 289.400 232.851 288.600 C 232.635 288.160,232.166 287.440,231.807 287.000 L 231.156 286.200 231.549 287.000 M233.949 291.000 C 234.165 291.440,234.634 292.160,234.993 292.600 L 235.644 293.400 235.251 292.600 C 235.035 292.160,234.566 291.440,234.207 291.000 L 233.556 290.200 233.949 291.000 M237.724 297.400 C 238.062 298.060,238.638 298.960,239.004 299.400 C 239.370 299.840,239.265 299.480,238.770 298.600 C 237.680 296.658,236.864 295.722,237.724 297.400 M240.349 301.800 C 240.565 302.240,241.034 302.960,241.393 303.400 L 242.044 304.200 241.651 303.400 C 241.435 302.960,240.966 302.240,240.607 301.800 L 239.956 301.000 240.349 301.800 M242.749 305.800 C 242.965 306.240,243.434 306.960,243.793 307.400 L 244.444 308.200 244.051 307.400 C 243.835 306.960,243.366 306.240,243.007 305.800 L 242.356 305.000 242.749 305.800 M245.160 309.800 C 245.834 311.105,246.388 311.828,246.385 311.400 C 246.383 311.180,246.014 310.550,245.564 310.000 C 245.021 309.336,244.885 309.269,245.160 309.800 M246.815 312.600 C 246.817 312.820,247.186 313.450,247.636 314.000 C 248.179 314.664,248.315 314.731,248.040 314.200 C 247.366 312.895,246.812 312.172,246.815 312.600 M85.680 315.280 C 85.350 315.610,85.225 317.267,85.281 320.580 L 85.362 325.400 85.581 320.400 L 85.800 315.400 96.000 315.190 L 106.200 314.979 96.180 314.890 C 88.817 314.824,86.033 314.927,85.680 315.280 M141.800 320.400 C 141.800 323.218,141.935 325.440,142.100 325.338 C 142.265 325.236,142.400 323.014,142.400 320.400 C 142.400 317.786,142.265 315.564,142.100 315.462 C 141.935 315.360,141.800 317.582,141.800 320.400 M249.149 316.600 C 249.365 317.040,249.834 317.760,250.193 318.200 L 250.844 319.000 250.451 318.200 C 250.235 317.760,249.766 317.040,249.407 316.600 L 248.756 315.800 249.149 316.600 M314.548 320.400 C 314.548 322.710,314.614 323.655,314.695 322.500 C 314.776 321.345,314.776 319.455,314.695 318.300 C 314.614 317.145,314.548 318.090,314.548 320.400 M251.549 320.600 C 251.765 321.040,252.234 321.760,252.593 322.200 L 253.244 323.000 252.851 322.200 C 252.635 321.760,252.166 321.040,251.807 320.600 L 251.156 319.800 251.549 320.600 M99.700 325.900 C 107.345 325.961,119.855 325.961,127.500 325.900 C 135.145 325.839,128.890 325.789,113.600 325.789 C 98.310 325.789,92.055 325.839,99.700 325.900 M269.900 325.900 C 277.875 325.960,290.925 325.960,298.900 325.900 C 306.875 325.839,300.350 325.790,284.400 325.790 C 268.450 325.790,261.925 325.839,269.900 325.900 " stroke="none" fill="#cadefa" fill-rule="evenodd"></path></g></svg>